PathFileType	4	(X/Y/Z)	Run_500 02
DataRate	CameraRate	NumFrames	NumMarkers	Units	OrigDataRate	OrigDataStartFrame	OrigNumFrames
120	120	4	42	mm	120	62	128
Frame#	Time	LASI			RASI			LPSI			RPSI			RTH1			RTH2			RTH3			LTH1			LTH2			LTH3			RTB1			RTB2			LTB1			LTB2			LTB3			RCAL			RTOE			RMT5			LCAL			LTOE			LMT5			LACR			RACR			CLAV			C7			RUA1			RUA2			RUA3			RLEL			RMEL			LUA1			LUA2			LUA3			LLEL			LMEL			RFAsuperior			RFAradius			RFAulna			LFAsuperior			LFAradius			LFAulna			RTB3		
		X1	Y1	Z1	X2	Y2	Z2	X3	Y3	Z3	X4	Y4	Z4	X5	Y5	Z5	X6	Y6	Z6	X7	Y7	Z7	X8	Y8	Z8	X9	Y9	Z9	X10	Y10	Z10	X11	Y11	Z11	X12	Y12	Z12	X13	Y13	Z13	X14	Y14	Z14	X15	Y15	Z15	X16	Y16	Z16	X17	Y17	Z17	X18	Y18	Z18	X19	Y19	Z19	X20	Y20	Z20	X21	Y21	Z21	X22	Y22	Z22	X23	Y23	Z23	X24	Y24	Z24	X25	Y25	Z25	X26	Y26	Z26	X27	Y27	Z27	X28	Y28	Z28	X29	Y29	Z29	X30	Y30	Z30	X31	Y31	Z31	X32	Y32	Z32	X33	Y33	Z33	X34	Y34	Z34	X35	Y35	Z35	X36	Y36	Z36	X37	Y37	Z37	X38	Y38	Z38	X39	Y39	Z39	X40	Y40	Z40	X41	Y41	Z41	X42	Y42	Z42	

62	  0.516667	932.321513	1066.760134	-753.856099	947.555689	1046.046801	-507.847523	761.611236	1098.233268	-671.814959	769.353081	1092.694134	-587.148152	837.364800	878.017988	-465.383512	842.392129	756.649367	-483.588554	735.213846	684.239205	-516.454293	931.298172	853.853748	-814.387841	1040.135224	770.482616	-800.647655	1028.260224	643.039039	-764.463711	580.885396	494.491160	-613.078790	512.408251	526.346102	-550.779077	1156.652866	443.027171	-696.489487	1145.878574	348.071919	-742.610724	1188.298041	244.867130	-672.461044	297.612401	654.209897	-640.735287	194.462277	446.187309	-667.268958	181.426882	517.595378	-580.487685	1116.483948	 88.959241	-640.901760	1343.624107	140.816372	-641.730916	1284.561172	 78.185700	-717.348453	924.795189	1511.182886	-828.081783	989.084143	1539.929013	-502.780808	1003.354940	1470.215485	-636.365750	875.771234	1556.838664	-646.075743	974.822876	1454.096494	-411.530502	973.948856	1365.034970	-401.387197	910.433593	1372.143323	-353.663831	895.039122	1242.816294	-290.381566	831.563272	1232.035389	-349.932483	870.189045	1449.304669	-897.998986	862.589579	1380.573860	-907.683458	767.557586	1393.148608	-883.956596	706.312795	1249.277622	-961.253501	669.215828	1246.052136	-883.070221	984.962854	1244.705791	-354.361821	1061.265437	1268.735766	-514.948535	1092.861392	1217.888778	-471.749394	796.717241	1217.426977	-942.347348	938.708888	1181.876484	-831.352540	927.764035	1118.546608	-864.637273	452.342121	443.547252	-620.854345	
63	  0.525000	930.190629	1060.993271	-755.533340	947.154300	1040.000195	-506.918277	758.612000	1090.762846	-669.910297	767.317146	1083.502020	-585.541342	841.326885	868.263135	-465.967942	851.131042	748.164555	-483.369207	746.792472	672.067866	-516.062242	927.849175	850.955932	-812.925990	1035.732832	769.184305	-796.730337	1022.757791	638.544394	-764.055272	599.570212	490.369824	-611.161263	533.567463	526.955676	-548.697745	1146.957196	433.595403	-695.788717	1130.976489	339.082658	-740.449015	1168.135054	234.208640	-669.693211	326.399107	669.287541	-639.308702	212.198775	466.164212	-660.223114	204.409660	539.905391	-574.534118	1085.842716	 90.569443	-637.661135	1317.091639	117.993858	-640.411704	1250.431774	 64.402095	-717.175022	927.951979	1502.451865	-829.043810	988.909006	1533.197519	-502.080789	1003.989674	1462.576131	-635.914754	875.942656	1550.409140	-647.526156	970.431341	1447.569269	-410.484407	966.439885	1358.805212	-399.863944	902.042025	1367.597318	-354.060584	882.753576	1238.646943	-291.065465	820.755025	1229.302466	-352.156840	875.777577	1437.967431	-900.120568	870.305404	1368.665410	-909.234888	774.343506	1379.084920	-889.312373	720.317088	1232.192171	-966.775757	679.840978	1228.444345	-889.230512	975.093691	1233.831257	-352.502798	1058.627408	1247.503037	-510.032043	1084.654357	1195.734344	-465.223295	810.910985	1202.328138	-945.940846	951.041906	1170.226336	-831.480045	941.425550	1106.376537	-863.858390	473.512353	444.202267	-618.697394	
64	  0.533333	927.209270	1054.199625	-757.719139	946.416773	1033.164969	-506.065114	754.940042	1082.586047	-667.628064	764.396126	1073.859718	-583.879959	845.378093	857.837622	-466.849715	859.442029	739.877420	-483.006650	758.646319	659.589340	-516.254657	923.692489	847.218813	-812.675825	1031.947720	766.279187	-794.064939	1018.229279	634.478492	-764.053623	619.866600	485.458866	-608.950274	556.397530	526.226657	-546.338731	1137.700208	426.075573	-694.379491	1115.600436	332.376074	-737.730571	1145.709470	226.232971	-665.460033	355.911055	681.131054	-638.297423	233.922711	481.797193	-651.980539	230.807871	557.940998	-567.828495	1051.365940	 93.374340	-634.915867	1285.449985	 98.970180	-636.963092	1213.131001	 55.984482	-716.357491	931.185347	1493.206799	-830.087242	988.260378	1526.302798	-501.066087	1004.755787	1454.610667	-635.332321	876.076788	1543.816438	-649.056536	965.957540	1440.047617	-409.411800	958.472057	1351.760905	-398.512059	893.405552	1362.394971	-354.437074	870.194820	1234.012309	-292.088305	809.876245	1225.969992	-354.826785	881.866011	1425.486552	-902.609531	878.575806	1355.727838	-910.581870	781.720552	1363.839011	-894.930026	735.219694	1214.491347	-972.372096	692.074628	1209.939952	-895.828612	964.554139	1221.936165	-350.125298	1054.826298	1224.343861	-504.252406	1075.372064	1172.455131	-457.505100	825.625457	1186.466596	-949.503260	963.774929	1157.684589	-831.237264	955.605875	1093.549667	-863.024786	496.348558	443.524405	-616.265616	
65	  0.541667	923.021555	1047.293850	-759.994557	945.069095	1025.583781	-505.736921	750.569672	1074.461595	-664.882089	760.610903	1064.450401	-582.114617	849.451671	847.538615	-468.025541	867.331964	732.223900	-482.612273	771.003301	647.049992	-517.286009	918.665918	843.271460	-813.392738	1028.458607	762.014251	-794.246998	1015.082498	631.380869	-765.019825	641.936733	480.110388	-606.736253	580.854439	524.132085	-543.911906	1128.392883	421.696670	-692.344239	1099.944285	329.191981	-735.153941	1121.003228	222.217087	-660.744082	386.134035	689.548555	-637.306577	258.623034	493.160429	-643.061580	259.864011	571.555019	-560.604160	1013.881942	 96.277392	-632.761090	1249.342673	 86.527842	-632.406749	1173.913699	 53.118665	-714.808822	934.249084	1483.833450	-831.309633	986.964547	1519.566539	-499.826945	1005.663824	1446.672070	-634.624569	876.340625	1537.493709	-650.717327	961.398726	1431.747802	-408.342412	950.064463	1343.930295	-397.675283	884.698587	1356.624991	-354.777511	857.380794	1229.048945	-293.592757	798.937065	1222.202500	-357.999080	888.559208	1411.990169	-905.501007	887.268843	1341.857589	-911.505114	789.667177	1347.348495	-900.917715	750.930022	1196.317587	-977.883989	705.742273	1190.758712	-902.591195	953.040706	1209.137486	-346.972272	1049.544879	1199.501549	-497.662905	1064.891503	1148.529282	-448.413353	840.678051	1169.773909	-952.880720	976.754361	1144.373202	-830.390648	970.304950	1080.188226	-862.037449	520.823744	441.471441	-613.765238	
